<?xml version="1.0" encoding="UTF-8" standalone="no"?>
<!DOCTYPE svg PUBLIC "-//W3C//DTD SVG 1.1//EN"
 "http://www.w3.org/Graphics/SVG/1.1/DTD/svg11.dtd">
<!-- Generated by graphviz version 2.47.0 (20210316.0004)
 -->
<!-- Title: dependencies Pages: 1 -->
<svg width="1383pt" height="284pt"
 viewBox="0.00 0.00 1383.00 284.00" xmlns="http://www.w3.org/2000/svg" xmlns:xlink="http://www.w3.org/1999/xlink">
<g id="graph0" class="graph" transform="scale(1 1) rotate(0) translate(4 280)">
<title>dependencies</title>
<polygon fill="white" stroke="transparent" points="-4,4 -4,-280 1379,-280 1379,4 -4,4"/>
<text text-anchor="start" x="666.51" y="-42.4" font-family="Times-12" font-weight="bold" font-size="14.00">Legend</text>
<polygon fill="#ffffb3" stroke="transparent" points="453.5,-10 453.5,-30 473.5,-30 473.5,-10 453.5,-10"/>
<text text-anchor="start" x="477.13" y="-15.4" font-family="Times-12" font-size="14.00"> &#160;Declarations</text>
<polygon fill="#8dd3c7" stroke="transparent" points="566.5,-10 566.5,-30 586.5,-30 586.5,-10 566.5,-10"/>
<text text-anchor="start" x="590.23" y="-15.4" font-family="Times-12" font-size="14.00"> &#160;Module</text>
<polygon fill="#80b1d3" stroke="transparent" points="652.5,-10 652.5,-30 672.5,-30 672.5,-10 652.5,-10"/>
<text text-anchor="start" x="676.28" y="-15.4" font-family="Times-12" font-size="14.00"> &#160;Bootstrap</text>
<polygon fill="#fdb462" stroke="transparent" points="749.5,-10 749.5,-30 769.5,-30 769.5,-10 749.5,-10"/>
<text text-anchor="start" x="773.17" y="-15.4" font-family="Times-12" font-size="14.00"> &#160;Providers</text>
<polygon fill="#fb8072" stroke="transparent" points="845.5,-10 845.5,-30 865.5,-30 865.5,-10 845.5,-10"/>
<text text-anchor="start" x="869.23" y="-15.4" font-family="Times-12" font-size="14.00"> &#160;Exports</text>
<g id="clust1" class="cluster">
<title>cluster_AppModule</title>
<polygon fill="none" stroke="black" stroke-dasharray="1,5" points="8,-70 8,-268 1367,-268 1367,-70 8,-70"/>
</g>
<g id="clust2" class="cluster">
<title>cluster_AppModule_declarations</title>
<polygon fill="none" stroke="black" points="508,-78 508,-130 1359,-130 1359,-78 508,-78"/>
</g>
<g id="clust11" class="cluster">
<title>cluster_AppModule_bootstrap</title>
<polygon fill="none" stroke="black" points="668,-208 668,-260 792,-260 792,-208 668,-208"/>
</g>
<g id="clust12" class="cluster">
<title>cluster_AppModule_providers</title>
<polygon fill="none" stroke="black" points="338,-78 338,-130 500,-130 500,-78 338,-78"/>
</g>
<g id="clust9" class="cluster">
<title>cluster_AppModule_imports</title>
<polygon fill="none" stroke="black" points="16,-78 16,-130 330,-130 330,-78 16,-78"/>
</g>
<!-- AppComponent -->
<g id="node1" class="node">
<title>AppComponent</title>
<polygon fill="#ffffb3" stroke="black" points="1350.94,-122 1245.06,-122 1245.06,-86 1350.94,-86 1350.94,-122"/>
<text text-anchor="middle" x="1298" y="-99.8" font-family="Times,serif" font-size="14.00">AppComponent</text>
</g>
<!-- AppModule -->
<g id="node7" class="node">
<title>AppModule</title>
<polygon fill="#8dd3c7" stroke="black" points="771.66,-187 768.66,-191 747.66,-191 744.66,-187 688.34,-187 688.34,-151 771.66,-151 771.66,-187"/>
<text text-anchor="middle" x="730" y="-164.8" font-family="Times,serif" font-size="14.00">AppModule</text>
</g>
<!-- AppComponent&#45;&gt;AppModule -->
<g id="edge1" class="edge">
<title>AppComponent&#45;&gt;AppModule</title>
<path fill="none" stroke="black" d="M1315.57,-122.25C1315.57,-145.02 1315.57,-181 1315.57,-181 1315.57,-181 782.11,-181 782.11,-181"/>
<polygon fill="black" stroke="black" points="782.11,-177.5 772.11,-181 782.11,-184.5 782.11,-177.5"/>
</g>
<!-- AppComponent&#45;&gt;AppModule -->
<g id="edge2" class="edge">
<title>AppComponent&#45;&gt;AppModule</title>
<path fill="none" stroke="black" d="M1280.43,-122.28C1280.43,-143.32 1280.43,-175 1280.43,-175 1280.43,-175 781.82,-175 781.82,-175"/>
<polygon fill="black" stroke="black" points="781.82,-171.5 771.82,-175 781.82,-178.5 781.82,-171.5"/>
</g>
<!-- DetailComponent -->
<g id="node2" class="node">
<title>DetailComponent</title>
<polygon fill="#ffffb3" stroke="black" points="1227.54,-122 1112.46,-122 1112.46,-86 1227.54,-86 1227.54,-122"/>
<text text-anchor="middle" x="1170" y="-99.8" font-family="Times,serif" font-size="14.00">DetailComponent</text>
</g>
<!-- DetailComponent&#45;&gt;AppModule -->
<g id="edge3" class="edge">
<title>DetailComponent&#45;&gt;AppModule</title>
<path fill="none" stroke="black" d="M1170,-122.11C1170,-141.34 1170,-169 1170,-169 1170,-169 781.79,-169 781.79,-169"/>
<polygon fill="black" stroke="black" points="781.79,-165.5 771.79,-169 781.79,-172.5 781.79,-165.5"/>
</g>
<!-- HeaderComponent -->
<g id="node3" class="node">
<title>HeaderComponent</title>
<polygon fill="#ffffb3" stroke="black" points="1093.74,-122 972.26,-122 972.26,-86 1093.74,-86 1093.74,-122"/>
<text text-anchor="middle" x="1033" y="-99.8" font-family="Times,serif" font-size="14.00">HeaderComponent</text>
</g>
<!-- HeaderComponent&#45;&gt;AppModule -->
<g id="edge4" class="edge">
<title>HeaderComponent&#45;&gt;AppModule</title>
<path fill="none" stroke="black" d="M1033,-122.02C1033,-139.37 1033,-163 1033,-163 1033,-163 781.81,-163 781.81,-163"/>
<polygon fill="black" stroke="black" points="781.81,-159.5 771.81,-163 781.81,-166.5 781.81,-159.5"/>
</g>
<!-- NotFoundComponent -->
<g id="node4" class="node">
<title>NotFoundComponent</title>
<polygon fill="#ffffb3" stroke="black" points="954.11,-122 815.89,-122 815.89,-86 954.11,-86 954.11,-122"/>
<text text-anchor="middle" x="885" y="-99.8" font-family="Times,serif" font-size="14.00">NotFoundComponent</text>
</g>
<!-- NotFoundComponent&#45;&gt;AppModule -->
<g id="edge5" class="edge">
<title>NotFoundComponent&#45;&gt;AppModule</title>
<path fill="none" stroke="black" d="M885,-122.24C885,-137.57 885,-157 885,-157 885,-157 781.95,-157 781.95,-157"/>
<polygon fill="black" stroke="black" points="781.95,-153.5 771.95,-157 781.95,-160.5 781.95,-153.5"/>
</g>
<!-- OverviewComponent -->
<g id="node5" class="node">
<title>OverviewComponent</title>
<polygon fill="#ffffb3" stroke="black" points="798.03,-122 661.97,-122 661.97,-86 798.03,-86 798.03,-122"/>
<text text-anchor="middle" x="730" y="-99.8" font-family="Times,serif" font-size="14.00">OverviewComponent</text>
</g>
<!-- OverviewComponent&#45;&gt;AppModule -->
<g id="edge6" class="edge">
<title>OverviewComponent&#45;&gt;AppModule</title>
<path fill="none" stroke="black" d="M730,-122.11C730,-122.11 730,-140.99 730,-140.99"/>
<polygon fill="black" stroke="black" points="726.5,-140.99 730,-150.99 733.5,-140.99 726.5,-140.99"/>
</g>
<!-- PositionComponent -->
<g id="node6" class="node">
<title>PositionComponent</title>
<polygon fill="#ffffb3" stroke="black" points="643.73,-122 516.27,-122 516.27,-86 643.73,-86 643.73,-122"/>
<text text-anchor="middle" x="580" y="-99.8" font-family="Times,serif" font-size="14.00">PositionComponent</text>
</g>
<!-- PositionComponent&#45;&gt;AppModule -->
<g id="edge7" class="edge">
<title>PositionComponent&#45;&gt;AppModule</title>
<path fill="none" stroke="black" d="M580,-122.24C580,-137.57 580,-157 580,-157 580,-157 678.22,-157 678.22,-157"/>
<polygon fill="black" stroke="black" points="678.22,-160.5 688.22,-157 678.22,-153.5 678.22,-160.5"/>
</g>
<!-- AppComponent  -->
<g id="node10" class="node">
<title>AppComponent </title>
<polygon fill="#80b1d3" stroke="black" points="784.44,-252 675.56,-252 675.56,-216 784.44,-216 784.44,-252"/>
<text text-anchor="middle" x="730" y="-229.8" font-family="Times,serif" font-size="14.00">AppComponent </text>
</g>
<!-- AppModule&#45;&gt;AppComponent  -->
<g id="edge11" class="edge">
<title>AppModule&#45;&gt;AppComponent </title>
<path fill="none" stroke="black" stroke-dasharray="1,5" d="M730,-187.11C730,-187.11 730,-205.99 730,-205.99"/>
<polygon fill="black" stroke="black" points="726.5,-205.99 730,-215.99 733.5,-205.99 726.5,-205.99"/>
</g>
<!-- AppRoutingModule -->
<g id="node8" class="node">
<title>AppRoutingModule</title>
<polygon fill="#8dd3c7" stroke="black" points="322.27,-122 319.27,-126 298.27,-126 295.27,-122 193.73,-122 193.73,-86 322.27,-86 322.27,-122"/>
<text text-anchor="middle" x="258" y="-99.8" font-family="Times,serif" font-size="14.00">AppRoutingModule</text>
</g>
<!-- AppRoutingModule&#45;&gt;AppModule -->
<g id="edge8" class="edge">
<title>AppRoutingModule&#45;&gt;AppModule</title>
<path fill="none" stroke="black" d="M279.46,-122.11C279.46,-141.34 279.46,-169 279.46,-169 279.46,-169 678.02,-169 678.02,-169"/>
<polygon fill="black" stroke="black" points="678.02,-172.5 688.02,-169 678.02,-165.5 678.02,-172.5"/>
</g>
<!-- AppRoutingModule&#45;&gt;AppModule -->
<g id="edge9" class="edge">
<title>AppRoutingModule&#45;&gt;AppModule</title>
<path fill="none" stroke="black" d="M236.54,-122.28C236.54,-143.32 236.54,-175 236.54,-175 236.54,-175 677.93,-175 677.93,-175"/>
<polygon fill="black" stroke="black" points="677.93,-178.5 687.93,-175 677.93,-171.5 677.93,-178.5"/>
</g>
<!-- SharedPrimeNGModule -->
<g id="node9" class="node">
<title>SharedPrimeNGModule</title>
<polygon fill="#8dd3c7" stroke="black" points="176.07,-122 173.07,-126 152.07,-126 149.07,-122 23.93,-122 23.93,-86 176.07,-86 176.07,-122"/>
<text text-anchor="middle" x="100" y="-99.8" font-family="Times,serif" font-size="14.00">SharedPrimeNGModule</text>
</g>
<!-- SharedPrimeNGModule&#45;&gt;AppModule -->
<g id="edge10" class="edge">
<title>SharedPrimeNGModule&#45;&gt;AppModule</title>
<path fill="none" stroke="black" d="M100,-122.25C100,-145.02 100,-181 100,-181 100,-181 678.18,-181 678.18,-181"/>
<polygon fill="black" stroke="black" points="678.18,-184.5 688.18,-181 678.18,-177.5 678.18,-184.5"/>
</g>
<!-- AuthInterceptor -->
<g id="node11" class="node">
<title>AuthInterceptor</title>
<ellipse fill="#fdb462" stroke="black" cx="419" cy="-104" rx="72.91" ry="18"/>
<text text-anchor="middle" x="419" y="-99.8" font-family="Times,serif" font-size="14.00">AuthInterceptor</text>
</g>
<!-- AuthInterceptor&#45;&gt;AppModule -->
<g id="edge12" class="edge">
<title>AuthInterceptor&#45;&gt;AppModule</title>
<path fill="none" stroke="black" d="M419,-122.02C419,-139.37 419,-163 419,-163 419,-163 678.06,-163 678.06,-163"/>
<polygon fill="black" stroke="black" points="678.06,-166.5 688.06,-163 678.06,-159.5 678.06,-166.5"/>
</g>
</g>
</svg>
